<svg width="50" height="25" viewBox="0 0 50 25" fill="none" xmlns="http://www.w3.org/2000/svg">
<g clip-path="url(#clip0_154_43)">
<g clip-path="url(#clip1_154_43)">
<rect x="4.5" y="5.5" width="16" height="15" fill="white"/>
<path d="M12.5 0.5C2.899 0.5 0.5 2.899 0.5 12.5C0.5 22.101 2.899 24.5 12.5 24.5C22.101 24.5 24.5 22.101 24.5 12.5C24.5 2.899 22.101 0.5 12.5 0.5ZM14.469 19.064C11.945 19.067 9.865 16.994 9.86 14.469C9.86 11.948 11.934 9.874 14.455 9.874C16.976 9.874 19.05 11.949 19.05 14.469C19.05 16.985 16.985 19.057 14.469 19.064ZM6.125 18.875V6.125H8.377V8.372V18.875H6.125ZM14.469 12.127C14.1613 12.1271 13.8567 12.1879 13.5724 12.3057C13.2882 12.4236 13.03 12.5963 12.8125 12.814C12.5951 13.0316 12.4226 13.29 12.305 13.5743C12.1873 13.8586 12.1269 14.1633 12.127 14.471C12.1271 14.7787 12.1879 15.0833 12.3057 15.3676C12.4236 15.6518 12.5963 15.91 12.814 16.1275C13.0316 16.3449 13.29 16.5174 13.5743 16.635C13.8586 16.7527 14.1633 16.8131 14.471 16.813C15.0924 16.8127 15.6882 16.5656 16.1275 16.126C16.5667 15.6865 16.8133 15.0904 16.813 14.469C16.8127 13.8476 16.5656 13.2518 16.126 12.8125C15.6865 12.3733 15.0904 12.1267 14.469 12.127Z" fill="#4ACD85"/>
</g>
<path d="M29.3577 14.5763V19.6979H28.3309V14.5763H26.5V13.6485H31.1887V14.5763H29.3577Z" fill="white"/>
<path d="M36.563 13.6485V14.601H33.3342V16.2093H36.229V17.1124H33.3342V18.733H36.662V19.6979H32.3074V13.6485H36.563Z" fill="white"/>
<path d="M42.4335 18.0278L43.0892 18.6959C42.4624 19.4134 41.6871 19.7722 40.7634 19.7722C39.8479 19.7722 39.085 19.4794 38.4747 18.8938C37.8727 18.3 37.5716 17.5536 37.5716 16.6546C37.5716 15.7474 37.8809 14.9969 38.4995 14.4031C39.118 13.801 39.8974 13.5 40.8376 13.5C41.7613 13.5 42.5407 13.8464 43.1758 14.5392L42.5325 15.2443C42.2438 14.9639 41.9716 14.7701 41.716 14.6629C41.4603 14.5557 41.1593 14.5021 40.8129 14.5021C40.1943 14.5021 39.6747 14.7 39.2541 15.0959C38.8417 15.4918 38.6356 15.9948 38.6356 16.6052C38.6356 17.2072 38.8417 17.7186 39.2541 18.1392C39.6665 18.5598 40.1572 18.7701 40.7263 18.7701C41.0727 18.7701 41.3696 18.7124 41.617 18.5969C41.8727 18.4814 42.1448 18.2918 42.4335 18.0278Z" fill="white"/>
<path d="M44.3425 19.6979V13.6485H45.3693V16.2711H48.3631V13.6485H49.3899V19.6979H48.3631V17.2237H45.3693V19.6979H44.3425Z" fill="white"/>
<path d="M31.3492 6.5H32.4327V12.5H31.2567L27.5967 8.11963V12.5H26.5V6.5H27.5967L31.3492 10.9785V6.5Z" fill="white"/>
<path d="M34.2351 6.5H35.3318V12.5H34.2351V6.5Z" fill="white"/>
<path d="M41.9631 6.5H43.0466V12.5H41.8706L38.2106 8.11963V12.5H37.1139V6.5H38.2106L41.9631 10.9785V6.5Z" fill="white"/>
<path d="M49.3943 6.5V7.44479H45.9457V9.03988H49.0375V9.93558H45.9457V11.5429H49.5V12.5H44.849V6.5H49.3943Z" fill="white"/>
</g>
<defs>
<clipPath id="clip0_154_43">
<rect width="50" height="25" fill="white"/>
</clipPath>
<clipPath id="clip1_154_43">
<rect width="24" height="24" fill="white" transform="matrix(-1 0 0 1 24.5 0.5)"/>
</clipPath>
</defs>
</svg>
